<?xml version="1.0" encoding="UTF-8"?>
<!DOCTYPE svg  PUBLIC '-//W3C//DTD SVG 1.1//EN'  'http://www.w3.org/Graphics/SVG/1.1/DTD/svg11.dtd'>
<svg enable-background="new 0 0 595.28 841.89" version="1.1" viewBox="0 0 595.28 841.89" xml:space="preserve" xmlns="http://www.w3.org/2000/svg">
	<circle cx="297.26" cy="420.94" r="150" fill="#F68B1F"/>
	<path d="m297.82 270.95v299.99c82.587-0.3 149.44-67.335 149.44-149.99 0-82.657-66.858-149.69-149.44-149.99z" fill="#F7941E"/>
		<path d="m385.89 362.98h-49.873v-8.378c0-4.832-3.916-8.748-8.747-8.748h-58.911c-4.831 0-8.748 3.917-8.748 8.748v8.378h-49.873c-4.831 0-8.747 3.915-8.747 8.746v115.56c0 4.831 3.916 8.747 8.747 8.747h176.15c4.831 0 8.747-3.916 8.747-8.747v-115.56c1e-3 -4.831-3.915-8.746-8.746-8.746z" fill="#662D91"/>
		<circle cx="297.82" cy="429.51" r="38.861" fill="#662D91"/>
		<path d="m297.82 345.86h-29.455c-4.831 0-8.748 3.917-8.748 8.748v8.378h-49.873c-4.831 0-8.747 3.915-8.747 8.746v115.56c0 4.831 3.916 8.747 8.747 8.747h88.076v-150.17z" fill="#262262"/>
		<path d="m297.82 476.02c-25.647 0-46.514-20.866-46.514-46.513 0-25.649 20.867-46.516 46.514-46.516 25.649 0 46.514 20.867 46.514 46.516 0 25.647-20.865 46.513-46.514 46.513zm0-77.721c-17.208 0-31.207 14-31.207 31.209 0 17.207 14 31.206 31.207 31.206s31.208-13.999 31.208-31.206c0-17.21-14.001-31.209-31.208-31.209z" fill="#fff"/>
		<path d="m266.61 429.51c0-17.209 14-31.209 31.207-31.209v-15.307c-25.647 0-46.514 20.867-46.514 46.516 0 25.646 20.867 46.513 46.514 46.513v-15.307c-17.208 0-31.207-13.999-31.207-31.206z" fill="#D1D3D4"/>
</svg>
